<svg width="48" height="48" viewBox="0 0 48 48" fill="none" xmlns="http://www.w3.org/2000/svg">
<path d="M0 37.9969V42C0 45.3094 8.0625 48 18 48C27.9375 48 36 45.3094 36 42V37.9969C32.1281 40.725 25.05 42 18 42C10.95 42 3.87187 40.725 0 37.9969ZM30 12C39.9375 12 48 9.30937 48 6C48 2.69063 39.9375 0 30 0C20.0625 0 12 2.69063 12 6C12 9.30937 20.0625 12 30 12ZM0 28.1625V33C0 36.3094 8.0625 39 18 39C27.9375 39 36 36.3094 36 33V28.1625C32.1281 31.35 25.0406 33 18 33C10.9594 33 3.87187 31.35 0 28.1625ZM39 29.1937C44.3719 28.1531 48 26.2219 48 24V19.9969C45.825 21.5344 42.6281 22.5844 39 23.2313V29.1937ZM18 15C8.0625 15 0 18.3563 0 22.5C0 26.6437 8.0625 30 18 30C27.9375 30 36 26.6437 36 22.5C36 18.3563 27.9375 15 18 15ZM38.5594 20.2781C44.1844 19.2656 48 17.2781 48 15V10.9969C44.6719 13.35 38.9531 14.6156 32.9344 14.9156C35.7 16.2563 37.7344 18.0562 38.5594 20.2781Z" fill="#FFEFCF"/>
</svg>
