<svg width="48" height="48" viewBox="0 0 48 48" fill="none" xmlns="http://www.w3.org/2000/svg">
<g clip-path="url(#clip0)">
<path d="M1.16343 13.8769L23.0016 23.7834C23.6391 24.0731 24.36 24.0731 24.9975 23.7834L46.8356 13.8769C48.3872 13.1728 48.3872 10.8281 46.8356 10.1241L24.9984 0.21656C24.6852 0.0733956 24.3449 -0.000701904 24.0005 -0.000701904C23.6561 -0.000701904 23.3157 0.0733956 23.0025 0.21656L1.16343 10.1231C-0.388135 10.8272 -0.388135 13.1728 1.16343 13.8769ZM46.8366 22.1531L41.3906 19.6847L26.2369 26.5537C25.5281 26.8753 24.7753 27.0384 24 27.0384C23.2247 27.0384 22.4728 26.8753 21.7631 26.5537L6.6103 19.6847L1.16343 22.1531C-0.388135 22.8562 -0.388135 25.2 1.16343 25.9031L23.0016 35.8022C23.6391 36.0909 24.36 36.0909 24.9975 35.8022L46.8366 25.9031C48.3881 25.2 48.3881 22.8562 46.8366 22.1531ZM46.8366 34.1344L41.4112 31.6753L26.2369 38.5537C25.5281 38.8753 24.7753 39.0384 24 39.0384C23.2247 39.0384 22.4728 38.8753 21.7631 38.5537L6.58968 31.6753L1.16343 34.1344C-0.388135 34.8375 -0.388135 37.1812 1.16343 37.8844L23.0016 47.7834C23.6391 48.0722 24.36 48.0722 24.9975 47.7834L46.8366 37.8844C48.3881 37.1812 48.3881 34.8375 46.8366 34.1344Z" fill="#FFEFCF"/>
</g>
<defs>
<clipPath id="clip0">
<rect width="48" height="48" fill="white"/>
</clipPath>
</defs>
</svg>
