<svg width="60" height="48" viewBox="0 0 60 48" fill="none" xmlns="http://www.w3.org/2000/svg">
<path d="M60 24.75V23.25C60 22.4212 59.3288 21.75 58.5 21.75H32.25V18H39C40.6566 18 42 16.6566 42 15V3C42 1.34344 40.6566 0 39 0H21C19.3434 0 18 1.34344 18 3V15C18 16.6566 19.3434 18 21 18H27.75V21.75H1.5C0.67125 21.75 0 22.4212 0 23.25V24.75C0 25.5788 0.67125 26.25 1.5 26.25H11.25V30H6C4.34344 30 3 31.3434 3 33V45C3 46.6566 4.34344 48 6 48H21C22.6566 48 24 46.6566 24 45V33C24 31.3434 22.6566 30 21 30H15.75V26.25H44.25V30H39C37.3434 30 36 31.3434 36 33V45C36 46.6566 37.3434 48 39 48H54C55.6566 48 57 46.6566 57 45V33C57 31.3434 55.6566 30 54 30H48.75V26.25H58.5C59.3288 26.25 60 25.5788 60 24.75ZM24 12V6H36V12H24ZM18 42H9V36H18V42ZM51 42H42V36H51V42Z" fill="#FFEFCF"/>
</svg>
