<svg width="256" height="256" viewBox="0 0 256 256" fill="none" xmlns="http://www.w3.org/2000/svg">
<circle cx="82" cy="131" r="5" fill="white"/>
<circle cx="165" cy="131" r="5" fill="white"/>
<path d="M110.373 217.632C110.864 218.101 111.41 218.51 111.997 218.85C112.603 219.209 113.267 219.459 113.958 219.59C115.558 219.871 117.182 219.995 118.805 219.96C121.792 219.878 124.745 219.311 127.549 218.28L127.619 218.254L127.989 218.11L128.359 218.254L128.429 218.28C131.235 219.297 134.188 219.85 137.172 219.919C138.796 219.954 140.42 219.83 142.019 219.549C142.711 219.419 143.375 219.168 143.98 218.809C144.568 218.469 145.114 218.061 145.605 217.592C146.589 216.631 147.44 215.544 148.135 214.358C149.147 212.633 149.978 210.808 150.614 208.912C150.718 208.604 150.814 208.316 150.896 208.053C143.936 205.789 142.049 201.338 134.468 202.873C129.11 204.009 128 211.897 128 211.897C128 211.897 126.55 203.972 121.514 203.017C114.384 201.667 113.274 205.434 105.082 208.094C105.164 208.357 105.256 208.645 105.363 208.956C106.001 210.851 106.831 212.674 107.842 214.399C108.538 215.585 109.389 216.672 110.373 217.632V217.632Z" fill="#F98178"/>
<path d="M162.969 210.754C162.182 210.737 161.383 210.699 160.571 210.64C159.831 210.584 159.113 210.499 158.418 210.403C157.792 212.219 156.938 214.68 156.449 215.72C155.895 216.945 155.263 218.134 154.559 219.279C153.395 221.214 151.936 222.954 150.233 224.437C149.302 225.231 148.278 225.91 147.184 226.461C146.018 227.046 144.771 227.456 143.484 227.678C141.399 228.033 139.284 228.186 137.169 228.137C134.183 228.066 131.217 227.623 128.34 226.82L128 226.723L127.663 226.82C124.785 227.624 121.819 228.066 118.831 228.137C116.717 228.186 114.604 228.033 112.519 227.678C111.233 227.456 109.986 227.046 108.819 226.461C107.725 225.912 106.701 225.232 105.77 224.437C104.066 222.955 102.605 221.215 101.441 219.279C100.738 218.134 100.108 216.945 99.5544 215.72C98.9528 214.394 98.4265 213.035 97.9782 211.65C97.9782 211.609 97.8117 211.021 97.6452 210.381C96.9385 210.48 96.2133 210.569 95.4511 210.625C94.6889 210.68 93.8416 210.721 93.0535 210.739C88.9279 210.843 84.8081 210.368 80.8139 209.33L80.2885 209.182C80.6881 209.433 81.0914 209.681 81.491 209.922C84.2919 211.631 87.1076 213.207 89.7827 214.961C91.3196 215.954 92.7904 217.045 94.1857 218.228C95.3845 219.26 96.5981 220.374 97.8635 221.529C99.1289 222.683 100.454 223.882 101.815 225.069C104.609 227.547 107.613 229.775 110.795 231.729C112.958 233.04 115.249 234.126 117.633 234.971C124.383 237.181 131.662 237.181 138.412 234.971C140.795 234.126 143.086 233.039 145.249 231.729C148.43 229.776 151.434 227.548 154.226 225.069C155.602 223.882 156.915 222.687 158.181 221.529C159.446 220.371 160.66 219.26 161.855 218.228C163.252 217.046 164.724 215.954 166.262 214.961C168.937 213.207 171.752 211.631 174.553 209.922C174.953 209.678 175.356 209.43 175.756 209.182L175.23 209.33C171.23 210.375 167.102 210.855 162.969 210.754V210.754Z" fill="#67686B"/>
<path d="M64.6856 94.6149L64.9594 94.3966C65.3886 93.997 65.8252 93.5863 66.2618 93.1608C68.6742 90.3932 69.6954 88.7874 70.8202 84.3474C74.7052 65.2961 59.3058 32.0294 46.7702 28.0556C45.9574 27.8604 45.1233 27.7684 44.2875 27.7818C43.3583 27.8048 42.4384 27.9721 41.5606 28.2776C40.4805 28.6617 39.4593 29.1947 38.5266 29.8612C37.0441 30.8765 35.7295 32.1174 34.6305 33.539C33.6636 34.8069 32.8996 36.2174 32.3661 37.72C32 38.762 31.7264 39.8342 31.5484 40.9242C31.2969 42.5145 31.1928 44.1247 31.2376 45.7342C31.3264 49.8597 32.2551 54.5069 33.6167 59.2207C34.9783 63.9345 36.7469 68.7223 38.4267 73.2326C39.3295 75.6635 40.199 78.0167 40.9649 80.2626C42.8445 85.2206 46.4816 95.8026 51.5136 99.103C55.295 101.578 59.9681 98.3926 64.6893 94.5964L64.6856 94.6149Z" fill="#7C6361"/>
<path d="M195.262 173.188C195.013 172.955 194.718 172.776 194.396 172.663C194.005 172.533 193.595 172.467 193.183 172.467C192.385 172.471 191.59 172.55 190.807 172.703C189.39 172.955 187.674 173.392 185.742 173.78C183.625 174.233 181.465 174.453 179.3 174.435C177.371 174.401 175.457 174.082 173.621 173.488C172.084 172.967 170.627 172.235 169.292 171.312C166.914 169.633 164.762 167.656 162.887 165.429C161.433 163.757 160.072 161.985 158.817 160.22C156.923 157.582 155.25 154.962 153.852 152.786C153.153 151.699 152.524 150.722 152.002 149.923C151.732 149.523 151.488 149.183 151.262 148.875C151.036 148.568 150.862 148.343 150.729 148.187C149.739 147.001 148.64 145.91 147.447 144.928C145.326 143.229 142.903 141.945 140.306 141.142C137.328 140.177 133.531 139.507 128.585 139.363C123.405 139.481 118.783 140.147 115.716 141.142C113.119 141.946 110.696 143.231 108.575 144.931C107.381 145.911 106.282 147.001 105.293 148.187C105.16 148.343 104.975 148.583 104.76 148.875C104.546 149.168 104.298 149.527 104.02 149.923C103.484 150.722 102.855 151.699 102.17 152.786C100.772 154.962 99.0993 157.596 97.2049 160.22C95.9432 161.985 94.5816 163.757 93.1349 165.429C91.2605 167.656 89.108 169.633 86.7302 171.312C85.3953 172.235 83.9383 172.967 82.4012 173.488C80.565 174.082 78.6512 174.401 76.7217 174.435C74.557 174.453 72.3968 174.233 70.28 173.78C68.3486 173.392 66.6318 172.955 65.2147 172.703C64.4323 172.549 63.6368 172.471 62.8393 172.47C62.427 172.468 62.017 172.533 61.6257 172.663C61.3039 172.776 61.0091 172.955 60.7599 173.188C60.6558 173.285 60.557 173.388 60.4639 173.495C59.8295 174.352 59.4836 175.389 59.476 176.455C59.3169 186.815 65.6291 192.939 65.6291 192.939C67.5866 194.899 69.7501 196.642 72.0819 198.137C78.2754 202.132 85.5351 204.153 92.9018 203.935C93.5752 203.935 94.2597 203.887 94.959 203.839C96.1895 203.754 97.4109 203.569 98.6109 203.284C99.5771 203.05 100.519 202.724 101.423 202.311C101.923 202.075 102.408 201.811 102.877 201.519V201.519C124.137 189.309 128 172.43 128.037 172.326C128.059 172.43 131.926 189.324 153.197 201.519C153.665 201.811 154.151 202.074 154.651 202.307C155.554 202.723 156.496 203.05 157.463 203.284C158.663 203.569 159.885 203.754 161.115 203.839C161.814 203.887 162.499 203.92 163.172 203.935C170.539 204.153 177.799 202.132 183.992 198.137C186.323 196.641 188.486 194.898 190.445 192.939C190.445 192.939 196.705 186.83 196.546 176.47C196.539 175.404 196.193 174.367 195.558 173.51C195.466 173.397 195.367 173.29 195.262 173.188V173.188ZM147.003 157.6C142.707 164.316 135.615 160.912 134.875 158.066C134.542 156.782 139.958 155.924 137.076 153.234C133.502 149.904 131.052 154.821 131.086 156.335C131.234 162.85 136.684 161.348 136.451 163.583C136.062 167.283 130.971 169.47 128.599 170.298C128.374 170.38 128.17 170.446 128 170.502C127.826 170.446 127.63 170.38 127.393 170.298C125.021 169.47 119.934 167.272 119.549 163.583C119.316 161.363 124.766 162.843 124.914 156.335C124.947 154.821 122.498 149.897 118.924 153.234C116.042 155.924 121.458 156.782 121.125 158.066C120.385 160.915 113.292 164.316 108.997 157.6C107.032 154.529 111.794 146.322 114.976 144.539C118.077 142.8 120.737 142.567 123.223 142.593L133.258 142.648H133.428C136.083 142.595 138.704 143.248 141.024 144.539C144.206 146.308 148.968 154.514 147.003 157.6Z" fill="#67686B"/>
<path d="M201.138 118.04C200.987 117.443 200.761 116.869 200.465 116.33C200.16 115.781 199.807 115.259 199.41 114.772C198.444 113.621 197.381 112.555 196.232 111.587C194.219 109.818 191.596 107.791 188.613 105.278C185.147 102.389 181.879 99.2702 178.831 95.9432C176.722 93.6233 174.735 91.2516 172.851 88.9835C171.438 87.2778 170.08 85.6313 168.781 84.1106C167.113 82.0893 165.324 80.1704 163.424 78.3645C162.739 77.7261 162.01 77.1376 161.241 76.6033C160.751 76.2572 160.22 75.9726 159.661 75.756C159.268 75.6253 158.862 75.5336 158.451 75.4822C157.792 75.392 157.129 75.3413 156.464 75.3305C154.309 75.3195 152.155 75.4568 150.019 75.7412C146.419 76.1741 142.515 76.8845 139.052 77.4913C137.317 77.7947 135.689 78.0759 134.22 78.2794C133.48 78.383 132.788 78.4681 132.114 78.5273C131.453 78.5914 130.788 78.6186 130.124 78.6087C129.909 78.6087 128.255 78.5865 128.019 78.568L125.869 78.6087C125.204 78.6186 124.54 78.5914 123.878 78.5273C123.205 78.4681 122.509 78.383 121.773 78.2794C120.293 78.0759 118.676 77.7947 116.941 77.4913C113.478 76.8845 109.574 76.1741 105.974 75.7412C103.837 75.4568 101.684 75.3195 99.5285 75.3305C98.8638 75.3413 98.2003 75.392 97.5416 75.4822C97.1292 75.5342 96.7228 75.6259 96.328 75.756C95.7699 75.9728 95.2405 76.2574 94.7518 76.6033C93.9831 77.1376 93.2536 77.7261 92.5688 78.3645C90.669 80.1704 88.8799 82.0893 87.2112 84.1106C85.9162 85.6313 84.5583 87.2778 83.1412 88.9835C81.2579 91.2516 79.271 93.6233 77.162 95.9432C74.1135 99.2702 70.8452 102.389 67.3792 105.278C64.397 107.791 61.7737 109.818 59.7609 111.587C58.6125 112.556 57.5492 113.622 56.5826 114.772C56.1853 115.259 55.8324 115.781 55.5281 116.33C55.2316 116.869 55.0053 117.443 54.8547 118.04V118.04C54.85 118.097 54.85 118.156 54.8547 118.213C54.8814 118.699 54.962 119.181 55.0952 119.649C55.3067 120.43 55.5624 121.198 55.8611 121.95C56.5197 123.664 57.4373 125.621 58.3142 127.556C58.8951 128.851 59.4649 130.146 59.9348 131.437C60.2109 132.191 60.4396 132.96 60.6193 133.742C61.0301 135.757 61.2469 137.806 61.2668 139.862C61.3112 141.853 61.2446 143.932 61.1114 146.112C60.9782 148.291 60.7895 150.529 60.5749 152.823C60.2271 156.483 59.8349 160.257 59.5278 163.949L59.7017 163.897C60.6663 163.637 61.6626 163.512 62.6617 163.527C63.6061 163.539 64.548 163.629 65.4774 163.798C66.3876 163.953 67.2719 164.168 68.1451 164.367C69.8878 164.789 71.5898 165.248 73.2622 165.533C74.3451 165.731 75.4433 165.833 76.5441 165.84C77.8059 165.852 79.0621 165.672 80.27 165.307C81.4526 164.911 82.5615 164.322 83.5519 163.564C84.8446 162.597 86.0448 161.512 87.1372 160.323C89.5385 157.77 91.8547 154.577 93.8749 151.569C95.2254 149.56 96.4464 147.636 97.5194 146.001C98.1336 145.064 98.6997 144.225 99.2362 143.492C99.5211 143.1 99.8023 142.752 100.095 142.382C101.527 140.685 103.14 139.149 104.905 137.801C107 136.232 109.306 134.964 111.753 134.035C113.69 133.3 115.685 132.73 117.718 132.333C121.028 131.705 124.387 131.369 127.756 131.33C131.288 131.379 134.81 131.722 138.286 132.355C140.318 132.753 142.313 133.321 144.25 134.053C146.699 134.98 149.004 136.246 151.099 137.816C152.865 139.162 154.477 140.697 155.909 142.393C156.201 142.737 156.483 143.096 156.768 143.503C157.304 144.243 157.878 145.076 158.484 146.012C159.557 147.647 160.778 149.571 162.129 151.562C164.149 154.57 166.465 157.759 168.867 160.308C169.959 161.496 171.157 162.581 172.448 163.55C173.441 164.305 174.551 164.894 175.734 165.292C176.94 165.655 178.193 165.835 179.452 165.825C180.553 165.815 181.651 165.712 182.734 165.514C184.407 165.229 186.109 164.774 187.851 164.345C188.724 164.134 189.609 163.931 190.515 163.775C191.446 163.608 192.389 163.516 193.335 163.502C194.334 163.488 195.33 163.613 196.295 163.872L196.465 163.927C196.161 160.245 195.766 156.49 195.421 152.846C195.207 150.552 195.014 148.302 194.885 146.134C194.755 143.966 194.685 141.875 194.73 139.884C194.749 137.828 194.966 135.779 195.377 133.765C195.557 132.983 195.785 132.213 196.062 131.46C196.531 130.161 197.098 128.869 197.682 127.578C198.559 125.643 199.477 123.686 200.135 121.973C200.434 121.221 200.69 120.452 200.901 119.671C201.034 119.203 201.115 118.722 201.142 118.236C201.146 118.178 201.146 118.12 201.142 118.062L201.138 118.04ZM82.49 142.97C75.3046 141.86 72.7775 132.37 72.7775 132.37C72.7775 132.37 76.6588 121.928 86.5637 122.38C98.4037 122.901 100.698 136.473 100.698 136.473C100.698 136.473 93.775 144.706 82.49 142.97ZM108.797 125.262C108.512 126.428 108.179 127.578 107.787 128.714C107.403 129.857 106.956 130.977 106.448 132.07C106.133 131.145 105.867 130.22 105.593 129.336C105.319 128.451 105.056 127.556 104.771 126.694C104.258 125.02 103.64 123.381 102.921 121.784C102.746 121.404 102.561 121.034 102.366 120.674C102.174 120.304 101.996 119.96 101.771 119.627C101.369 118.977 100.919 118.359 100.424 117.777C99.5093 116.707 98.3731 115.848 97.0939 115.261C94.589 114.095 91.3034 113.981 87.8883 114.38C86.1752 114.573 84.4251 114.887 82.6417 115.253C80.8583 115.62 79.0453 116.042 77.1509 116.46C77.6793 115.847 78.2545 115.277 78.8714 114.754L79.5115 114.203C80.3662 113.485 81.2727 112.815 82.2162 112.168C84.1794 110.832 86.2629 109.683 88.4396 108.734C89.002 108.494 89.5718 108.26 90.1527 108.042C90.7336 107.824 91.3256 107.631 91.9213 107.443C93.1313 107.062 94.3681 106.773 95.6213 106.577C98.1225 106.185 100.746 106.233 103.058 107.032C104.178 107.426 105.216 108.022 106.122 108.79C106.981 109.55 107.696 110.46 108.231 111.476C108.758 112.499 109.138 113.591 109.359 114.721C109.47 115.29 109.563 115.86 109.622 116.441C109.681 117.022 109.7 117.61 109.704 118.199C109.686 120.581 109.38 122.953 108.793 125.262H108.797ZM154.27 119.627C154.059 119.96 153.867 120.315 153.674 120.674C153.482 121.033 153.304 121.414 153.119 121.784C152.401 123.381 151.783 125.02 151.269 126.694C150.984 127.556 150.722 128.44 150.448 129.336C150.174 130.231 149.908 131.145 149.593 132.07C149.084 130.978 148.639 129.857 148.258 128.714C147.862 127.578 147.518 126.428 147.244 125.262C146.662 122.953 146.361 120.583 146.348 118.202C146.348 117.614 146.382 117.029 146.433 116.445C146.485 115.86 146.581 115.294 146.692 114.724C146.908 113.596 147.282 112.504 147.802 111.48C148.337 110.464 149.052 109.554 149.911 108.793C150.817 108.026 151.855 107.43 152.975 107.036C155.288 106.237 157.911 106.188 160.412 106.581C161.665 106.776 162.902 107.065 164.112 107.447C164.708 107.635 165.3 107.816 165.881 108.046C166.462 108.275 167.031 108.497 167.594 108.738C169.77 109.686 171.854 110.836 173.817 112.171C174.761 112.819 175.667 113.489 176.522 114.206L177.162 114.758C177.779 115.282 178.355 115.852 178.886 116.463C176.988 116.045 175.186 115.616 173.392 115.257C171.597 114.898 169.858 114.576 168.145 114.384C164.73 113.984 161.444 114.099 158.939 115.265C157.659 115.851 156.523 116.709 155.609 117.781C155.117 118.361 154.669 118.979 154.27 119.627ZM173.51 142.97C162.221 144.706 155.299 136.454 155.299 136.454C155.299 136.454 157.6 122.887 169.44 122.365C179.349 121.928 183.23 132.355 183.23 132.355C183.23 132.355 180.699 141.864 173.51 142.97Z" fill="#E3BA6A"/>
<path d="M221.88 37.72C221.348 36.213 220.585 34.7976 219.619 33.5242C218.518 32.1034 217.202 30.8627 215.72 29.8464C214.787 29.1799 213.766 28.6469 212.686 28.2628C211.808 27.9573 210.888 27.79 209.959 27.767C209.123 27.7536 208.289 27.8456 207.476 28.0408C194.94 32.0146 179.541 65.2813 183.426 84.3326C184.536 88.7726 185.572 90.3784 187.988 93.146C188.425 93.5727 188.858 93.9847 189.287 94.3818L189.561 94.6001C194.285 98.4 198.955 101.597 202.74 99.14C207.772 95.8507 211.409 85.2576 213.289 80.2996C214.055 78.0463 214.924 75.6931 215.827 73.2696C217.503 68.7593 219.275 63.9752 220.637 59.2577C221.999 54.5402 222.927 49.8967 223.016 45.7712C223.061 44.1617 222.957 42.5515 222.705 40.9612C222.527 39.8584 222.251 38.7737 221.88 37.72V37.72Z" fill="#7C6361"/>
<path d="M86.56 122.365C76.6551 121.928 72.7738 132.355 72.7738 132.355C72.7738 132.355 75.3009 141.849 82.4863 142.955C93.775 144.691 100.694 136.443 100.694 136.443C100.694 136.443 98.4 122.887 86.56 122.365ZM81.8499 133.465C78.0315 133.465 78.0315 127.545 81.8499 127.545C85.6683 127.545 85.6683 133.458 81.8499 133.458V133.465Z" fill="#231F20"/>
<path d="M169.44 122.365C157.6 122.887 155.306 136.454 155.306 136.454C155.306 136.454 162.229 144.705 173.517 142.97C180.703 141.86 183.23 132.37 183.23 132.37C183.23 132.37 179.345 121.928 169.44 122.365ZM164.438 133.465C160.619 133.465 160.619 127.545 164.438 127.545C168.256 127.545 168.252 133.457 164.434 133.457L164.438 133.465Z" fill="#231F20"/>
<path d="M109.345 114.724C109.123 113.595 108.743 112.503 108.216 111.48C107.681 110.464 106.967 109.554 106.107 108.793C105.202 108.026 104.163 107.43 103.043 107.036C100.731 106.237 98.1077 106.189 95.6065 106.581C94.3533 106.776 93.1165 107.066 91.9065 107.447C91.3108 107.635 90.7188 107.817 90.1379 108.046C89.557 108.275 88.9872 108.497 88.4248 108.738C86.2481 109.686 84.1646 110.836 82.2014 112.171C81.2579 112.819 80.3514 113.489 79.4967 114.206L78.8566 114.758C78.2397 115.281 77.6645 115.851 77.1361 116.463C79.0305 116.045 80.8361 115.616 82.6269 115.257C84.4177 114.898 86.1604 114.576 87.8735 114.384C91.2886 113.984 94.5742 114.099 97.0791 115.265C98.3582 115.852 99.4945 116.711 100.409 117.781C100.904 118.362 101.354 118.981 101.756 119.631C101.967 119.964 102.159 120.319 102.352 120.678C102.544 121.037 102.722 121.418 102.907 121.788C103.625 123.384 104.243 125.024 104.757 126.698C105.042 127.56 105.304 128.444 105.578 129.339C105.852 130.235 106.118 131.149 106.433 132.074C106.941 130.981 107.388 129.86 107.772 128.718C108.164 127.582 108.512 126.431 108.782 125.266C109.364 122.957 109.665 120.587 109.678 118.206C109.678 117.618 109.644 117.033 109.596 116.449C109.548 115.864 109.456 115.294 109.345 114.724Z" fill="#231F20"/>
<path d="M158.936 115.265C161.441 114.099 164.726 113.984 168.141 114.384C169.854 114.576 171.604 114.891 173.388 115.257C175.171 115.623 176.984 116.045 178.882 116.463C178.352 115.852 177.775 115.282 177.158 114.758L176.518 114.206C175.663 113.489 174.757 112.819 173.813 112.171C171.85 110.836 169.767 109.686 167.59 108.738C167.028 108.497 166.458 108.264 165.877 108.046C165.296 107.828 164.704 107.635 164.108 107.447C162.898 107.065 161.662 106.776 160.408 106.581C157.907 106.189 155.284 106.237 152.971 107.036C151.852 107.43 150.813 108.026 149.908 108.793C149.048 109.554 148.334 110.464 147.799 111.48C147.278 112.504 146.905 113.596 146.689 114.724C146.578 115.294 146.485 115.864 146.43 116.445C146.374 117.026 146.352 117.614 146.345 118.202C146.358 120.583 146.658 122.953 147.24 125.262C147.529 126.427 147.858 127.578 148.254 128.714C148.635 129.857 149.081 130.978 149.59 132.07C149.904 131.145 150.17 130.22 150.444 129.336C150.718 128.451 150.981 127.556 151.266 126.694C151.779 125.02 152.397 123.381 153.116 121.784C153.291 121.404 153.476 121.034 153.671 120.674C153.863 120.304 154.041 119.96 154.266 119.627C154.669 118.977 155.121 118.359 155.617 117.777C156.528 116.708 157.66 115.851 158.936 115.265V115.265Z" fill="#231F20"/>
<path d="M141.024 144.524C138.704 143.233 136.083 142.58 133.428 142.633H133.258L123.223 142.578C120.737 142.552 118.077 142.785 114.976 144.524C111.794 146.308 107.032 154.514 108.997 157.585C113.293 164.301 120.385 160.915 121.125 158.051C121.458 156.767 116.042 155.909 118.924 153.219C122.498 149.889 124.948 154.806 124.914 156.32C124.766 162.836 119.316 161.333 119.549 163.568C119.919 167.268 125.021 169.455 127.393 170.284C127.623 170.365 127.826 170.432 128 170.487C128.17 170.432 128.37 170.365 128.599 170.284C130.971 169.455 136.062 167.261 136.451 163.568C136.684 161.348 131.234 162.828 131.086 156.32C131.052 154.806 133.502 149.882 137.076 153.219C139.958 155.909 134.542 156.767 134.875 158.051C135.615 160.897 142.707 164.301 147.003 157.585C148.968 154.514 144.206 146.308 141.024 144.524Z" fill="#231F20"/>
<path d="M234.227 38.46C233.749 35.9293 232.911 33.4798 231.741 31.1858C230.924 29.5993 229.941 28.1036 228.81 26.7236C227.194 24.7718 225.318 23.0513 223.234 21.6102C221.534 20.406 219.673 19.4457 217.706 18.7575C215.849 18.1154 213.903 17.7659 211.938 17.7215C209.901 17.6829 207.871 17.9524 205.915 18.5207C203.981 19.082 202.119 19.8642 200.365 20.8517C196.842 22.809 193.619 25.4508 190.541 28.4478C188.491 30.4495 186.508 32.6177 184.577 34.8747C181.987 37.8791 179.515 41.0463 177.114 44.1765C173.913 48.3501 170.857 52.4719 167.99 56.0498C166.35 58.0959 164.774 59.9607 163.294 61.548C161.923 63.0719 160.408 64.4597 158.769 65.692C158.076 65.6254 157.376 65.5847 156.668 65.5699C155.076 65.5422 153.484 65.5966 151.898 65.7327C150.278 65.8659 148.627 66.0583 146.985 66.2877C143.703 66.7428 140.45 67.3311 137.616 67.8269C135.733 68.1599 134.035 68.4485 132.695 68.6335C131.933 68.7371 131.289 68.8074 130.845 68.8333C130.605 68.8333 130.423 68.8518 130.331 68.8333H130.272L128.814 68.9739L125.699 68.8333H125.636C125.547 68.8333 125.366 68.8333 125.125 68.8333C124.677 68.8074 124.034 68.7371 123.275 68.6335C121.936 68.4485 120.237 68.1599 118.354 67.8269C115.52 67.3311 112.268 66.7428 108.986 66.2877C107.343 66.062 105.693 65.8659 104.072 65.7327C102.486 65.5966 100.894 65.5422 99.3028 65.5699C98.5924 65.5847 97.8918 65.6254 97.2012 65.692C95.5628 64.4597 94.0474 63.0719 92.6761 61.548C91.1961 59.9607 89.6199 58.0959 87.9808 56.0498C85.1133 52.4719 82.0608 48.3501 78.8566 44.1765C76.4664 41.05 73.98 37.8754 71.39 34.871C69.4586 32.614 67.4754 30.431 65.4256 28.4478C62.3472 25.4471 59.1356 22.8053 55.6021 20.848C53.8533 19.8624 51.9973 19.0803 50.0706 18.517C48.1145 17.9487 46.0837 17.6792 44.047 17.7178C42.0823 17.764 40.1366 18.1135 38.2787 18.7538C36.3126 19.4436 34.4522 20.4037 32.7509 21.6065C30.6669 23.0476 28.7907 24.7681 27.175 26.7199C26.0426 28.0998 25.0591 29.5955 24.2409 31.1821C23.0776 33.4789 22.2467 35.9294 21.773 38.46C21.3056 40.9375 21.1058 43.4582 21.1773 45.9784C21.2883 50.6996 22.1726 55.4134 23.3973 59.994C24.3112 63.4276 25.4101 66.7872 26.5386 69.984C28.2369 74.794 30.0018 79.2969 31.3116 83.1042C31.9665 85.006 32.5067 86.7339 32.8693 88.1954C33.0506 88.9354 33.1875 89.5903 33.28 90.1675C33.3604 90.641 33.4086 91.1194 33.4243 91.5994C33.4337 91.8332 33.4213 92.0673 33.3873 92.2987C32.8961 95.0744 32.6694 97.8903 32.7102 100.709C32.7455 102.828 33.011 104.937 33.502 106.999C33.8767 108.579 34.4225 110.114 35.13 111.576C36.1949 113.76 37.6754 115.715 39.4886 117.333C40.6126 118.326 41.8554 119.176 43.1886 119.864C43.8944 120.229 44.6222 120.551 45.3679 120.826C45.3975 120.974 45.4234 121.125 45.4567 121.27C45.8101 122.81 46.2864 124.32 46.8812 125.784C47.7396 127.952 48.7312 130.031 49.5415 131.844C49.9485 132.747 50.3074 133.58 50.5812 134.279C50.7867 134.791 50.9585 135.317 51.0955 135.851C51.3668 137.247 51.508 138.666 51.5173 140.088C51.5654 142.234 51.4507 144.791 51.2361 147.577C50.9216 151.758 50.3962 156.457 49.967 161.267C49.4843 166.061 49.2644 170.878 49.3084 175.697C49.3459 177.772 49.4978 179.843 49.7635 181.902C50.0143 183.884 50.4389 185.84 51.0326 187.748C52.8071 193.486 55.5706 198.87 59.1985 203.658C61.5 206.643 64.1314 209.359 67.0425 211.753C71.1125 215.128 75.2528 217.614 78.8825 219.779C80.7029 220.855 82.3975 221.854 83.9034 222.824C85.2595 223.67 86.554 224.611 87.7773 225.639C89.6273 227.234 91.8473 229.339 94.4188 231.615C98.2668 235.008 102.881 238.748 108.479 241.653C111.381 243.174 114.447 244.361 117.618 245.19C124.442 246.828 131.558 246.828 138.382 245.19C141.553 244.361 144.619 243.174 147.521 241.653C153.116 238.748 157.729 234.993 161.581 231.615C164.142 229.35 166.369 227.234 168.219 225.639C169.444 224.611 170.74 223.671 172.097 222.824C173.602 221.854 175.297 220.855 177.117 219.775C180.758 217.614 184.887 215.128 188.957 211.753C191.875 209.361 194.512 206.646 196.82 203.661C200.448 198.875 203.21 193.49 204.982 187.751C205.579 185.843 206.005 183.885 206.255 181.902C206.521 179.845 206.673 177.774 206.71 175.7C206.754 170.882 206.534 166.065 206.051 161.27C205.622 156.46 205.097 151.758 204.782 147.58C204.568 144.798 204.453 142.241 204.501 140.095C204.51 138.673 204.652 137.255 204.923 135.859C205.059 135.324 205.231 134.799 205.437 134.286C205.711 133.587 206.07 132.755 206.477 131.852C207.287 130.039 208.279 127.959 209.137 125.791C209.732 124.327 210.208 122.817 210.562 121.277C210.595 121.133 210.621 120.981 210.651 120.833C211.396 120.558 212.124 120.237 212.83 119.871C214.162 119.183 215.405 118.333 216.53 117.34C218.337 115.719 219.811 113.761 220.87 111.576C221.579 110.12 222.127 108.592 222.505 107.017C222.996 104.956 223.262 102.846 223.297 100.727C223.338 97.9088 223.111 95.0929 222.62 92.3172C222.586 92.0858 222.574 91.8517 222.583 91.6179C222.599 91.1379 222.647 90.6595 222.727 90.186C222.82 89.6088 222.957 88.9465 223.138 88.2139C223.508 86.7524 224.041 85.0245 224.696 83.1227C226.006 79.3154 227.77 74.8162 229.469 70.0025C230.579 66.7909 231.689 63.4313 232.606 60.0125C233.82 55.4319 234.704 50.7181 234.826 45.9969C234.898 43.4704 234.697 40.9435 234.227 38.46V38.46ZM51.5099 99.14C46.4779 95.8507 42.8408 85.2576 40.9612 80.2996C40.1953 78.0463 39.3258 75.6931 38.423 73.2696C36.7469 68.7593 34.9746 63.9752 33.613 59.2577C32.2514 54.5402 31.3227 49.8967 31.2339 45.7712C31.1891 44.1617 31.2931 42.5515 31.5447 40.9612C31.7226 39.8712 31.9963 38.799 32.3624 37.757C32.8945 36.2492 33.6585 34.8336 34.6268 33.5612C35.7258 32.1396 37.0404 30.8987 38.5229 29.8834C39.4556 29.2169 40.4768 28.6839 41.5569 28.2998C42.4347 27.9943 43.3546 27.827 44.2838 27.804C45.1196 27.7906 45.9537 27.8826 46.7665 28.0778C59.3058 32.0516 74.7052 65.3183 70.8165 84.3696C69.7065 88.8096 68.6705 90.4154 66.2581 93.183C65.8215 93.6085 65.3849 94.0192 64.9557 94.4188L64.6819 94.6371C59.9644 98.4 55.2913 101.597 51.5099 99.14ZM174.531 209.94C171.73 211.65 168.915 213.226 166.239 214.98C164.702 215.973 163.23 217.064 161.833 218.247C160.638 219.279 159.424 220.393 158.159 221.547C156.893 222.702 155.569 223.9 154.203 225.088C151.412 227.566 148.408 229.795 145.227 231.748C143.064 233.058 140.773 234.144 138.39 234.989C131.639 237.199 124.36 237.199 117.61 234.989C115.227 234.145 112.936 233.059 110.773 231.748C107.591 229.794 104.586 227.565 101.793 225.088C100.42 223.9 99.1067 222.705 97.8413 221.547C96.5759 220.389 95.3623 219.279 94.1635 218.247C92.7682 217.063 91.2974 215.972 89.7605 214.98C87.0854 213.226 84.2697 211.65 81.4688 209.94C81.0692 209.696 80.6659 209.448 80.2663 209.2L80.7917 209.348C84.7858 210.387 88.9056 210.861 93.0313 210.758C93.8181 210.741 94.6173 210.702 95.4289 210.643C96.1911 210.588 96.9089 210.499 97.623 210.399C97.7895 211.039 97.9412 211.627 97.956 211.668C98.4043 213.053 98.9306 214.412 99.5322 215.738C100.085 216.963 100.716 218.152 101.419 219.298C102.583 221.233 104.044 222.974 105.748 224.455C106.679 225.251 107.702 225.931 108.797 226.479C109.964 227.065 111.211 227.475 112.497 227.697C114.581 228.051 116.695 228.205 118.809 228.155C121.796 228.085 124.763 227.642 127.641 226.838L127.978 226.742L128.318 226.838C131.195 227.642 134.16 228.084 137.146 228.155C139.262 228.205 141.377 228.051 143.462 227.697C144.749 227.475 145.995 227.065 147.162 226.479C148.256 225.929 149.279 225.249 150.211 224.455C151.914 222.973 153.373 221.232 154.536 219.298C155.241 218.152 155.873 216.963 156.427 215.738C156.901 214.698 157.77 212.238 158.395 210.421C159.091 210.517 159.801 210.603 160.549 210.658C161.36 210.717 162.16 210.755 162.946 210.773C167.072 210.876 171.192 210.401 175.186 209.363L175.711 209.215C175.334 209.448 174.931 209.696 174.531 209.94ZM105.082 208.09C113.274 205.43 114.384 201.663 121.514 203.014C126.55 203.968 128 211.894 128 211.894C128 211.894 129.11 204.005 134.49 202.914C142.071 201.375 143.958 205.826 150.918 208.094C150.836 208.357 150.74 208.645 150.637 208.952C150 210.848 149.169 212.674 148.158 214.399C147.462 215.585 146.611 216.672 145.627 217.633C145.136 218.101 144.59 218.51 144.002 218.85C143.397 219.209 142.733 219.459 142.041 219.59C140.442 219.871 138.818 219.995 137.194 219.96C134.208 219.878 131.255 219.311 128.451 218.28L128.381 218.254L128.011 218.11L127.641 218.254L127.571 218.28C124.765 219.297 121.812 219.851 118.828 219.919C117.204 219.954 115.58 219.83 113.981 219.549C113.289 219.419 112.625 219.168 112.02 218.809C111.432 218.469 110.886 218.061 110.395 217.592C109.411 216.632 108.56 215.544 107.865 214.358C106.853 212.634 106.023 210.81 105.386 208.915C105.256 208.66 105.164 208.357 105.082 208.094V208.09ZM190.393 192.946C188.435 194.905 186.271 196.648 183.94 198.145C177.747 202.139 170.487 204.161 163.12 203.943C162.447 203.943 161.762 203.894 161.063 203.846C159.833 203.762 158.611 203.576 157.411 203.291C156.444 203.058 155.503 202.731 154.599 202.315C154.099 202.082 153.613 201.818 153.145 201.526V201.526C131.889 189.316 128.022 172.437 127.985 172.333C127.963 172.437 124.1 189.331 102.825 201.526C102.356 201.818 101.871 202.083 101.371 202.318C100.467 202.731 99.5253 203.057 98.5591 203.291C97.3591 203.576 96.1376 203.762 94.9072 203.846C94.2079 203.894 93.5234 203.928 92.85 203.943C85.4833 204.161 78.2236 202.139 72.0301 198.145C69.6983 196.649 67.5348 194.906 65.5773 192.946C65.5773 192.946 59.2947 186.83 59.4538 176.47C59.4614 175.404 59.8073 174.367 60.4417 173.51C60.5348 173.402 60.6336 173.3 60.7377 173.203C60.9869 172.97 61.2817 172.791 61.6035 172.678C61.9948 172.548 62.4048 172.483 62.8171 172.485C63.6146 172.486 64.4101 172.564 65.1925 172.718C66.6096 172.97 68.3264 173.406 70.2578 173.795C72.3746 174.248 74.5348 174.468 76.6995 174.45C78.629 174.416 80.5428 174.097 82.379 173.503C83.916 172.982 85.373 172.25 86.708 171.327C89.0858 169.648 91.2383 167.671 93.1127 165.444C94.5668 163.772 95.9284 161.999 97.1827 160.234C99.0771 157.596 100.749 154.977 102.148 152.801C102.847 151.713 103.476 150.737 103.998 149.937C104.264 149.541 104.512 149.197 104.738 148.89C104.964 148.583 105.138 148.357 105.271 148.202C106.26 147.016 107.359 145.926 108.553 144.946C110.674 143.246 113.097 141.961 115.694 141.157C118.761 140.162 123.39 139.496 128.562 139.378C133.509 139.522 137.305 140.192 140.284 141.157C142.881 141.959 145.303 143.243 147.425 144.942C148.618 145.924 149.717 147.016 150.707 148.202C150.84 148.357 151.025 148.594 151.24 148.89C151.454 149.186 151.698 149.538 151.98 149.937C152.516 150.737 153.145 151.713 153.83 152.801C155.228 154.977 156.901 157.611 158.795 160.234C160.057 161.999 161.418 163.772 162.865 165.444C164.739 167.671 166.892 169.648 169.27 171.327C170.605 172.25 172.062 172.982 173.599 173.503C175.435 174.097 177.349 174.416 179.278 174.45C181.443 174.468 183.603 174.248 185.72 173.795C187.651 173.406 189.368 172.97 190.785 172.718C191.568 172.565 192.363 172.485 193.161 172.481C193.573 172.482 193.983 172.548 194.374 172.678C194.696 172.791 194.991 172.97 195.24 173.203C195.344 173.3 195.443 173.402 195.536 173.51C196.17 174.367 196.516 175.404 196.524 176.47C196.705 186.83 190.393 192.95 190.393 192.95V192.946ZM200.89 119.657C200.678 120.438 200.423 121.206 200.124 121.958C199.465 123.671 198.548 125.628 197.671 127.563C197.086 128.858 196.52 130.153 196.05 131.445C195.774 132.198 195.546 132.968 195.366 133.75C194.955 135.764 194.738 137.814 194.718 139.87C194.674 141.86 194.744 143.94 194.874 146.119C195.003 148.298 195.196 150.537 195.41 152.831C195.754 156.475 196.15 160.231 196.454 163.912L196.283 163.857C195.318 163.598 194.322 163.474 193.323 163.487C192.378 163.501 191.435 163.593 190.504 163.761C189.598 163.916 188.713 164.131 187.84 164.33C186.097 164.756 184.395 165.215 182.723 165.5C181.64 165.697 180.542 165.801 179.441 165.81C178.184 165.819 176.933 165.639 175.73 165.278C174.547 164.879 173.437 164.291 172.444 163.535C171.154 162.566 169.955 161.481 168.863 160.294C166.461 157.744 164.145 154.555 162.125 151.547C160.775 149.538 159.535 147.614 158.481 145.997C157.866 145.061 157.3 144.221 156.764 143.488C156.479 143.096 156.198 142.748 155.905 142.378C154.474 140.682 152.861 139.147 151.095 137.801C149.001 136.232 146.695 134.965 144.247 134.038C142.31 133.307 140.314 132.738 138.282 132.34C134.808 131.712 131.287 131.374 127.756 131.33C124.385 131.379 121.025 131.724 117.714 132.362C115.681 132.76 113.686 133.329 111.75 134.064C109.302 134.993 106.996 136.261 104.901 137.831C103.136 139.179 101.523 140.715 100.091 142.412C99.7986 142.756 99.5174 143.118 99.2325 143.522C98.696 144.262 98.1225 145.094 97.5157 146.03C96.4427 147.666 95.2217 149.59 93.8712 151.599C91.851 154.607 89.5348 157.8 87.1335 160.353C86.0411 161.542 84.8408 162.627 83.5482 163.594C82.5578 164.352 81.4489 164.941 80.2663 165.337C79.061 165.702 77.8073 165.883 76.5478 165.873C75.447 165.867 74.3488 165.764 73.2659 165.566C71.5935 165.281 69.8915 164.826 68.1488 164.401C67.2756 164.19 66.3913 163.986 65.4811 163.831C64.5517 163.663 63.6098 163.572 62.6654 163.561C61.6663 163.546 60.67 163.67 59.7054 163.931L59.5315 163.983C59.8349 160.283 60.2308 156.516 60.5786 152.857C60.7932 150.563 60.9856 148.313 61.1151 146.145C61.2446 143.977 61.3149 141.886 61.2705 139.896C61.2506 137.84 61.0338 135.79 60.623 133.776C60.4432 132.994 60.2146 132.224 59.9385 131.471C59.4686 130.172 58.8988 128.881 58.3179 127.589C57.441 125.654 56.5234 123.697 55.8648 121.984C55.5661 121.232 55.3104 120.463 55.0989 119.682C54.9657 119.214 54.8851 118.733 54.8584 118.247C54.8537 118.189 54.8537 118.131 54.8584 118.073V118.073C55.009 117.477 55.2353 116.902 55.5318 116.364C55.8361 115.814 56.189 115.293 56.5863 114.806C57.5529 113.655 58.6162 112.589 59.7646 111.62C61.7774 109.852 64.4007 107.824 67.3829 105.312C70.8489 102.422 74.1172 99.3035 77.1657 95.9765C79.2747 93.6566 81.2616 91.2849 83.1449 89.0168C84.5583 87.3111 85.9162 85.6646 87.2149 84.1439C88.8836 82.1226 90.6727 80.2037 92.5725 78.3978C93.2572 77.7595 93.9868 77.1709 94.7555 76.6366C95.2442 76.2907 95.7736 76.0061 96.3317 75.7893C96.7265 75.6592 97.1329 75.5675 97.5453 75.5155C98.204 75.4253 98.8674 75.3747 99.5322 75.3638C101.688 75.3529 103.841 75.4901 105.978 75.7745C109.578 76.2074 113.481 76.9178 116.944 77.5246C118.68 77.828 120.304 78.1092 121.777 78.3127C122.517 78.4163 123.208 78.5014 123.882 78.5606C124.543 78.6247 125.208 78.6519 125.872 78.642L128.022 78.6013C128.259 78.6198 129.913 78.6383 130.127 78.642C130.792 78.6519 131.457 78.6247 132.118 78.5606C132.791 78.5014 133.487 78.4163 134.223 78.3127C135.703 78.1092 137.32 77.828 139.056 77.5246C142.519 76.9178 146.422 76.2074 150.022 75.7745C152.159 75.4901 154.312 75.3529 156.468 75.3638C157.133 75.3747 157.796 75.4253 158.455 75.5155C158.866 75.5669 159.271 75.6587 159.665 75.7893C160.224 76.006 160.755 76.2905 161.244 76.6366C162.013 77.1709 162.743 77.7595 163.427 78.3978C165.327 80.2037 167.116 82.1226 168.785 84.1439C170.08 85.6646 171.438 87.3111 172.855 89.0168C174.738 91.2849 176.725 93.6566 178.834 95.9765C181.883 99.3035 185.151 102.422 188.617 105.312C191.599 107.824 194.223 109.852 196.235 111.62C197.385 112.588 198.448 113.654 199.414 114.806C199.811 115.293 200.164 115.814 200.468 116.364C200.765 116.902 200.991 117.477 201.142 118.073V118.073C201.146 118.131 201.146 118.189 201.142 118.247C201.109 118.724 201.025 119.197 200.89 119.657V119.657ZM223.009 45.749C222.92 49.8745 221.991 54.5217 220.629 59.2355C219.268 63.9493 217.499 68.7371 215.819 73.2474C214.917 75.6783 214.047 78.0315 213.281 80.2774C211.402 85.2354 207.765 95.8174 202.733 99.1178C198.951 101.593 194.282 98.4074 189.557 94.6112L189.283 94.3929C188.854 93.9933 188.421 93.5814 187.984 93.1571C185.568 90.3895 184.547 88.7837 183.422 84.3437C179.541 65.2924 194.94 32.0257 207.472 28.0519C208.285 27.8567 209.119 27.7647 209.955 27.7781C210.884 27.8011 211.804 27.9684 212.682 28.2739C213.762 28.658 214.783 29.191 215.716 29.8575C217.199 30.8738 218.514 32.1145 219.616 33.5353C220.582 34.8051 221.346 36.2167 221.88 37.72C222.246 38.762 222.52 39.8342 222.698 40.9242C222.95 42.5194 223.054 44.1346 223.009 45.749Z" fill="#231F20"/>
</svg>
